<svg width="1920" height="1080" viewBox="0 0 1920 1080" fill="none" xmlns="http://www.w3.org/2000/svg">
  <defs>
    <linearGradient id="bg" x1="0" y1="0" x2="1920" y2="1080" gradientUnits="userSpaceOnUse">
      <stop stop-color="#070B12"/>
      <stop offset="1" stop-color="#0F1726"/>
    </linearGradient>
    <linearGradient id="card" x1="0" y1="0" x2="0" y2="1">
      <stop stop-color="#1AA0D8"/>
      <stop offset="1" stop-color="#1386BA"/>
    </linearGradient>
  </defs>

  <rect width="1920" height="1080" fill="url(#bg)"/>

  <rect x="0" y="0" width="1920" height="88" fill="#0A1322"/>
  <rect x="0" y="86" width="1920" height="2" fill="#22334C"/>

  <text x="960" y="56" text-anchor="middle" fill="#F3FAFF" font-family="Segoe UI, Arial, sans-serif" font-size="38" font-weight="700">Flyer Generators</text>

  <rect x="1660" y="24" width="62" height="40" rx="10" fill="#1AA0D8"/>
  <text x="1691" y="50" text-anchor="middle" fill="#FFFFFF" font-family="Segoe UI, Arial, sans-serif" font-size="18" font-weight="700">PDF</text>

  <rect x="1740" y="24" width="56" height="40" rx="20" fill="#1D2B40" stroke="#3D5678"/>
  <text x="1768" y="50" text-anchor="middle" fill="#F5FAFF" font-family="Segoe UI, Arial, sans-serif" font-size="20" font-weight="700">⚙</text>

  <g transform="translate(72, 126)">
    <text x="0" y="0" fill="#A9BEDA" font-family="Segoe UI, Arial, sans-serif" font-size="20" font-weight="600">Generation result view</text>

    <text x="864" y="58" text-anchor="middle" fill="#EAF4FF" font-family="Segoe UI, Arial, sans-serif" font-size="34" font-weight="700">Round 1</text>

    <text x="286" y="102" text-anchor="middle" fill="#7FA0C2" font-family="Segoe UI, Arial, sans-serif" font-size="22" font-weight="600">Team 1</text>
    <text x="864" y="102" text-anchor="middle" fill="#7FA0C2" font-family="Segoe UI, Arial, sans-serif" font-size="22" font-weight="600">Team 2</text>
    <text x="1442" y="102" text-anchor="middle" fill="#7FA0C2" font-family="Segoe UI, Arial, sans-serif" font-size="22" font-weight="600">Team 3</text>

    <rect x="0" y="126" width="572" height="84" rx="14" fill="url(#card)"/>
    <rect x="578" y="126" width="572" height="84" rx="14" fill="url(#card)"/>
    <rect x="1156" y="126" width="572" height="84" rx="14" fill="url(#card)"/>

    <text x="24" y="176" fill="#FFFFFF" font-family="Segoe UI, Arial, sans-serif" font-size="28" font-weight="700">101  Ivan Petrov</text>
    <text x="602" y="176" fill="#FFFFFF" font-family="Segoe UI, Arial, sans-serif" font-size="28" font-weight="700">102  Alex Sidorov</text>
    <text x="1180" y="176" fill="#FFFFFF" font-family="Segoe UI, Arial, sans-serif" font-size="28" font-weight="700">103  Denis Kuznetsov</text>

    <rect x="0" y="224" width="572" height="84" rx="14" fill="url(#card)"/>
    <rect x="578" y="224" width="572" height="84" rx="14" fill="url(#card)"/>
    <rect x="1156" y="224" width="572" height="84" rx="14" fill="url(#card)"/>

    <text x="24" y="274" fill="#FFFFFF" font-family="Segoe UI, Arial, sans-serif" font-size="28" font-weight="700">104  Maria Smirnova</text>
    <text x="602" y="274" fill="#FFFFFF" font-family="Segoe UI, Arial, sans-serif" font-size="28" font-weight="700">105  Olga Ivanova</text>
    <text x="1180" y="274" fill="#FFFFFF" font-family="Segoe UI, Arial, sans-serif" font-size="28" font-weight="700">106  Artyom Romanov</text>

    <rect x="0" y="338" width="1728" height="1" fill="#22334C"/>

    <text x="864" y="402" text-anchor="middle" fill="#EAF4FF" font-family="Segoe UI, Arial, sans-serif" font-size="34" font-weight="700">Round 2</text>

    <rect x="0" y="434" width="572" height="84" rx="14" fill="url(#card)"/>
    <rect x="578" y="434" width="572" height="84" rx="14" fill="url(#card)"/>
    <rect x="1156" y="434" width="572" height="84" rx="14" fill="url(#card)"/>

    <text x="24" y="484" fill="#FFFFFF" font-family="Segoe UI, Arial, sans-serif" font-size="28" font-weight="700">103  Denis Kuznetsov</text>
    <text x="602" y="484" fill="#FFFFFF" font-family="Segoe UI, Arial, sans-serif" font-size="28" font-weight="700">101  Ivan Petrov</text>
    <text x="1180" y="484" fill="#FFFFFF" font-family="Segoe UI, Arial, sans-serif" font-size="28" font-weight="700">104  Maria Smirnova</text>

    <rect x="0" y="532" width="572" height="84" rx="14" fill="url(#card)"/>
    <rect x="578" y="532" width="572" height="84" rx="14" fill="url(#card)"/>
    <rect x="1156" y="532" width="572" height="84" rx="14" fill="url(#card)"/>

    <text x="24" y="582" fill="#FFFFFF" font-family="Segoe UI, Arial, sans-serif" font-size="28" font-weight="700">105  Olga Ivanova</text>
    <text x="602" y="582" fill="#FFFFFF" font-family="Segoe UI, Arial, sans-serif" font-size="28" font-weight="700">106  Artyom Romanov</text>
    <text x="1180" y="582" fill="#FFFFFF" font-family="Segoe UI, Arial, sans-serif" font-size="28" font-weight="700">102  Alex Sidorov</text>
  </g>
</svg>
