<svg width="2800" height="1700" viewBox="0 0 2800 1700" fill="none" xmlns="http://www.w3.org/2000/svg">
  <defs>
    <linearGradient id="bg" x1="0" y1="0" x2="2800" y2="1700" gradientUnits="userSpaceOnUse">
      <stop stop-color="#070B12"/>
      <stop offset="1" stop-color="#101A2B"/>
    </linearGradient>
    <linearGradient id="card" x1="0" y1="0" x2="0" y2="1">
      <stop stop-color="#1BA4DC"/>
      <stop offset="1" stop-color="#127EAF"/>
    </linearGradient>
  </defs>

  <rect width="2800" height="1700" fill="url(#bg)"/>

  <rect x="0" y="0" width="2800" height="96" fill="#0A1322"/>
  <rect x="0" y="94" width="2800" height="2" fill="#22334C"/>
  <text x="1400" y="60" text-anchor="middle" fill="#F3FAFF" font-family="Segoe UI, Arial, sans-serif" font-size="42" font-weight="700">Flyer Generators · 7 Teams · 3 Participants · 5 Rounds</text>

  <g font-family="Segoe UI, Arial, sans-serif" font-weight="600" font-size="18" fill="#89A7C7">
    <text x="80" y="156">Team 1</text>
    <text x="470" y="156">Team 2</text>
    <text x="860" y="156">Team 3</text>
    <text x="1250" y="156">Team 4</text>
    <text x="1640" y="156">Team 5</text>
    <text x="2030" y="156">Team 6</text>
    <text x="2420" y="156">Team 7</text>
  </g>

  <g>
    <text x="1400" y="210" text-anchor="middle" fill="#EAF4FF" font-family="Segoe UI, Arial, sans-serif" font-size="34" font-weight="700">Round 1</text>

    <rect x="60" y="232" width="360" height="56" rx="10" fill="url(#card)"/><text x="80" y="267" fill="#FFF" font-family="Segoe UI, Arial, sans-serif" font-size="22" font-weight="700">101  Ivan Petrov</text>
    <rect x="60" y="296" width="360" height="56" rx="10" fill="url(#card)"/><text x="80" y="331" fill="#FFF" font-family="Segoe UI, Arial, sans-serif" font-size="22" font-weight="700">102  Alex Sidorov</text>
    <rect x="60" y="360" width="360" height="56" rx="10" fill="url(#card)"/><text x="80" y="395" fill="#FFF" font-family="Segoe UI, Arial, sans-serif" font-size="22" font-weight="700">103  Maria Smirnova</text>

    <rect x="450" y="232" width="360" height="56" rx="10" fill="url(#card)"/><text x="470" y="267" fill="#FFF" font-family="Segoe UI, Arial, sans-serif" font-size="22" font-weight="700">104  Denis Kuznetsov</text>
    <rect x="450" y="296" width="360" height="56" rx="10" fill="url(#card)"/><text x="470" y="331" fill="#FFF" font-family="Segoe UI, Arial, sans-serif" font-size="22" font-weight="700">105  Olga Ivanova</text>
    <rect x="450" y="360" width="360" height="56" rx="10" fill="url(#card)"/><text x="470" y="395" fill="#FFF" font-family="Segoe UI, Arial, sans-serif" font-size="22" font-weight="700">106  Artem Romanov</text>

    <rect x="840" y="232" width="360" height="56" rx="10" fill="url(#card)"/><text x="860" y="267" fill="#FFF" font-family="Segoe UI, Arial, sans-serif" font-size="22" font-weight="700">107  Kirill Pavlov</text>
    <rect x="840" y="296" width="360" height="56" rx="10" fill="url(#card)"/><text x="860" y="331" fill="#FFF" font-family="Segoe UI, Arial, sans-serif" font-size="22" font-weight="700">108  Egor Sorokin</text>
    <rect x="840" y="360" width="360" height="56" rx="10" fill="url(#card)"/><text x="860" y="395" fill="#FFF" font-family="Segoe UI, Arial, sans-serif" font-size="22" font-weight="700">109  Pavel Morozov</text>

    <rect x="1230" y="232" width="360" height="56" rx="10" fill="url(#card)"/><text x="1250" y="267" fill="#FFF" font-family="Segoe UI, Arial, sans-serif" font-size="22" font-weight="700">110  Irina Volkova</text>
    <rect x="1230" y="296" width="360" height="56" rx="10" fill="url(#card)"/><text x="1250" y="331" fill="#FFF" font-family="Segoe UI, Arial, sans-serif" font-size="22" font-weight="700">111  Anna Lebedeva</text>
    <rect x="1230" y="360" width="360" height="56" rx="10" fill="url(#card)"/><text x="1250" y="395" fill="#FFF" font-family="Segoe UI, Arial, sans-serif" font-size="22" font-weight="700">112  Roman Fedorov</text>

    <rect x="1620" y="232" width="360" height="56" rx="10" fill="url(#card)"/><text x="1640" y="267" fill="#FFF" font-family="Segoe UI, Arial, sans-serif" font-size="22" font-weight="700">113  Svetlana Orlova</text>
    <rect x="1620" y="296" width="360" height="56" rx="10" fill="url(#card)"/><text x="1640" y="331" fill="#FFF" font-family="Segoe UI, Arial, sans-serif" font-size="22" font-weight="700">114  Viktor Zinoviev</text>
    <rect x="1620" y="360" width="360" height="56" rx="10" fill="url(#card)"/><text x="1640" y="395" fill="#FFF" font-family="Segoe UI, Arial, sans-serif" font-size="22" font-weight="700">115  Mikhail Egorov</text>

    <rect x="2010" y="232" width="360" height="56" rx="10" fill="url(#card)"/><text x="2030" y="267" fill="#FFF" font-family="Segoe UI, Arial, sans-serif" font-size="22" font-weight="700">116  Nina Smolina</text>
    <rect x="2010" y="296" width="360" height="56" rx="10" fill="url(#card)"/><text x="2030" y="331" fill="#FFF" font-family="Segoe UI, Arial, sans-serif" font-size="22" font-weight="700">117  Yulia Makarova</text>
    <rect x="2010" y="360" width="360" height="56" rx="10" fill="url(#card)"/><text x="2030" y="395" fill="#FFF" font-family="Segoe UI, Arial, sans-serif" font-size="22" font-weight="700">118  Dmitry Trofimov</text>

    <rect x="2400" y="232" width="360" height="56" rx="10" fill="url(#card)"/><text x="2420" y="267" fill="#FFF" font-family="Segoe UI, Arial, sans-serif" font-size="22" font-weight="700">119  Alina Melnikova</text>
    <rect x="2400" y="296" width="360" height="56" rx="10" fill="url(#card)"/><text x="2420" y="331" fill="#FFF" font-family="Segoe UI, Arial, sans-serif" font-size="22" font-weight="700">120  Oleg Danilov</text>
    <rect x="2400" y="360" width="360" height="56" rx="10" fill="url(#card)"/><text x="2420" y="395" fill="#FFF" font-family="Segoe UI, Arial, sans-serif" font-size="22" font-weight="700">121  Polina Ermakova</text>
  </g>

  <g fill="#22334C">
    <rect x="60" y="444" width="2700" height="1"/>
    <rect x="60" y="694" width="2700" height="1"/>
    <rect x="60" y="944" width="2700" height="1"/>
    <rect x="60" y="1194" width="2700" height="1"/>
  </g>

  <g font-family="Segoe UI, Arial, sans-serif" font-size="34" font-weight="700" fill="#EAF4FF" text-anchor="middle">
    <text x="1400" y="500">Round 2</text>
    <text x="1400" y="750">Round 3</text>
    <text x="1400" y="1000">Round 4</text>
    <text x="1400" y="1250">Round 5</text>
  </g>

  <g font-family="Segoe UI, Arial, sans-serif" font-size="20" font-weight="600" fill="#7FA0C2" text-anchor="middle">
    <text x="1400" y="548">Same 7-column x 3-cards structure as Round 1</text>
    <text x="1400" y="798">Same 7-column x 3-cards structure as Round 1</text>
    <text x="1400" y="1048">Same 7-column x 3-cards structure as Round 1</text>
    <text x="1400" y="1298">Same 7-column x 3-cards structure as Round 1</text>
  </g>
</svg>
