<svg width="64" height="44" viewBox="0 0 64 44" fill="none" xmlns="http://www.w3.org/2000/svg">
<rect x="5" y="5" width="58" height="38" stroke="#5C5C5C" stroke-width="2"/>
<rect x="1" y="1" width="58" height="38" fill="white" stroke="black" stroke-width="2"/>
<path d="M4.782 33C4.65 33 4.542 32.958 4.458 32.874C4.374 32.79 4.332 32.682 4.332 32.55V20.85C4.332 20.718 4.374 20.61 4.458 20.526C4.542 20.442 4.65 20.4 4.782 20.4H12.81C12.942 20.4 13.05 20.442 13.134 20.526C13.218 20.61 13.26 20.718 13.26 20.85V22.38C13.26 22.512 13.218 22.62 13.134 22.704C13.05 22.788 12.942 22.83 12.81 22.83H7.14V25.872H12.45C12.582 25.872 12.69 25.914 12.774 25.998C12.858 26.082 12.9 26.19 12.9 26.322V27.852C12.9 27.972 12.858 28.074 12.774 28.158C12.69 28.242 12.582 28.284 12.45 28.284H7.14V32.55C7.14 32.682 7.098 32.79 7.014 32.874C6.93 32.958 6.822 33 6.69 33H4.782ZM15.5528 33C15.4208 33 15.3128 32.958 15.2288 32.874C15.1448 32.79 15.1028 32.682 15.1028 32.55V20.67C15.1028 20.538 15.1448 20.43 15.2288 20.346C15.3128 20.262 15.4208 20.22 15.5528 20.22H17.3528C17.4728 20.22 17.5748 20.262 17.6588 20.346C17.7428 20.43 17.7848 20.538 17.7848 20.67V32.55C17.7848 32.682 17.7428 32.79 17.6588 32.874C17.5748 32.958 17.4728 33 17.3528 33H15.5528ZM20.984 33C20.864 33 20.762 32.958 20.678 32.874C20.594 32.79 20.552 32.682 20.552 32.55V24.09C20.552 23.958 20.594 23.85 20.678 23.766C20.762 23.682 20.864 23.64 20.984 23.64H22.784C22.916 23.64 23.024 23.682 23.108 23.766C23.192 23.85 23.234 23.958 23.234 24.09V32.55C23.234 32.682 23.192 32.79 23.108 32.874C23.024 32.958 22.916 33 22.784 33H20.984ZM20.93 22.2C20.81 22.2 20.708 22.158 20.624 22.074C20.54 21.99 20.498 21.882 20.498 21.75V20.31C20.498 20.178 20.54 20.07 20.624 19.986C20.708 19.89 20.81 19.842 20.93 19.842H22.82C22.952 19.842 23.06 19.89 23.144 19.986C23.24 20.07 23.288 20.178 23.288 20.31V21.75C23.288 21.882 23.24 21.99 23.144 22.074C23.06 22.158 22.952 22.2 22.82 22.2H20.93ZM29.8834 36.96C28.9954 36.96 28.2574 36.84 27.6694 36.6C27.0814 36.372 26.6134 36.09 26.2654 35.754C25.9294 35.43 25.6894 35.106 25.5454 34.782C25.4014 34.458 25.3234 34.206 25.3114 34.026C25.2994 33.894 25.3414 33.786 25.4374 33.702C25.5334 33.618 25.6414 33.576 25.7614 33.576H27.6874C27.7954 33.576 27.8854 33.6 27.9574 33.648C28.0414 33.708 28.1074 33.804 28.1554 33.936C28.2154 34.08 28.2994 34.23 28.4074 34.386C28.5154 34.554 28.6774 34.692 28.8934 34.8C29.1214 34.908 29.4214 34.962 29.7934 34.962C30.2134 34.962 30.5614 34.902 30.8374 34.782C31.1134 34.662 31.3174 34.458 31.4494 34.17C31.5934 33.882 31.6654 33.492 31.6654 33V31.794C31.3774 32.106 31.0114 32.364 30.5674 32.568C30.1354 32.772 29.6014 32.874 28.9654 32.874C28.3414 32.874 27.7894 32.778 27.3094 32.586C26.8414 32.382 26.4514 32.1 26.1394 31.74C25.8274 31.368 25.5874 30.924 25.4194 30.408C25.2514 29.892 25.1554 29.31 25.1314 28.662C25.1194 28.338 25.1194 28.02 25.1314 27.708C25.1554 27.084 25.2514 26.514 25.4194 25.998C25.5874 25.482 25.8274 25.038 26.1394 24.666C26.4514 24.282 26.8414 23.988 27.3094 23.784C27.7894 23.568 28.3414 23.46 28.9654 23.46C29.6254 23.46 30.1894 23.586 30.6574 23.838C31.1254 24.09 31.5094 24.402 31.8094 24.774V24.09C31.8094 23.97 31.8514 23.868 31.9354 23.784C32.0194 23.688 32.1214 23.64 32.2414 23.64H34.0054C34.1254 23.64 34.2274 23.688 34.3114 23.784C34.4074 23.868 34.4554 23.97 34.4554 24.09L34.4734 32.748C34.4734 33.648 34.2994 34.41 33.9514 35.034C33.6034 35.658 33.0874 36.132 32.4034 36.456C31.7314 36.792 30.8914 36.96 29.8834 36.96ZM29.7934 30.768C30.2254 30.768 30.5734 30.672 30.8374 30.48C31.1134 30.276 31.3174 30.024 31.4494 29.724C31.5814 29.412 31.6534 29.088 31.6654 28.752C31.6774 28.62 31.6834 28.434 31.6834 28.194C31.6834 27.942 31.6774 27.75 31.6654 27.618C31.6534 27.282 31.5814 26.964 31.4494 26.664C31.3174 26.352 31.1134 26.1 30.8374 25.908C30.5734 25.716 30.2254 25.62 29.7934 25.62C29.3374 25.62 28.9774 25.722 28.7134 25.926C28.4494 26.118 28.2574 26.376 28.1374 26.7C28.0174 27.024 27.9454 27.378 27.9214 27.762C27.9094 28.05 27.9094 28.332 27.9214 28.608C27.9454 29.004 28.0174 29.364 28.1374 29.688C28.2574 30.012 28.4494 30.276 28.7134 30.48C28.9774 30.672 29.3374 30.768 29.7934 30.768ZM37.1914 33C37.0594 33 36.9514 32.958 36.8674 32.874C36.7834 32.79 36.7414 32.682 36.7414 32.55V20.67C36.7414 20.538 36.7834 20.43 36.8674 20.346C36.9514 20.262 37.0594 20.22 37.1914 20.22H39.1354C39.2554 20.22 39.3574 20.262 39.4414 20.346C39.5254 20.43 39.5674 20.538 39.5674 20.67V24.72C39.8914 24.336 40.2874 24.03 40.7554 23.802C41.2234 23.574 41.7874 23.46 42.4474 23.46C43.1554 23.46 43.7794 23.622 44.3194 23.946C44.8714 24.258 45.3034 24.72 45.6154 25.332C45.9274 25.932 46.0834 26.664 46.0834 27.528V32.55C46.0834 32.682 46.0414 32.79 45.9574 32.874C45.8734 32.958 45.7654 33 45.6334 33H43.6714C43.5514 33 43.4494 32.958 43.3654 32.874C43.2814 32.79 43.2394 32.682 43.2394 32.55V27.636C43.2394 27 43.0834 26.508 42.7714 26.16C42.4594 25.8 42.0154 25.62 41.4394 25.62C40.8754 25.62 40.4194 25.8 40.0714 26.16C39.7354 26.508 39.5674 27 39.5674 27.636V32.55C39.5674 32.682 39.5254 32.79 39.4414 32.874C39.3574 32.958 39.2554 33 39.1354 33H37.1914ZM52.632 33C51.888 33 51.252 32.88 50.724 32.64C50.196 32.388 49.794 32.004 49.518 31.488C49.254 30.972 49.122 30.324 49.122 29.544V25.764H47.718C47.586 25.764 47.478 25.722 47.394 25.638C47.31 25.554 47.268 25.446 47.268 25.314V24.09C47.268 23.958 47.31 23.85 47.394 23.766C47.478 23.682 47.586 23.64 47.718 23.64H49.122V20.67C49.122 20.538 49.164 20.43 49.248 20.346C49.344 20.262 49.452 20.22 49.572 20.22H51.336C51.468 20.22 51.576 20.262 51.66 20.346C51.744 20.43 51.786 20.538 51.786 20.67V23.64H54.036C54.156 23.64 54.258 23.682 54.342 23.766C54.426 23.85 54.468 23.958 54.468 24.09V25.314C54.468 25.446 54.426 25.554 54.342 25.638C54.258 25.722 54.156 25.764 54.036 25.764H51.786V29.328C51.786 29.784 51.864 30.144 52.02 30.408C52.188 30.66 52.476 30.786 52.884 30.786H54.198C54.318 30.786 54.42 30.828 54.504 30.912C54.588 30.996 54.63 31.098 54.63 31.218V32.55C54.63 32.682 54.588 32.79 54.504 32.874C54.42 32.958 54.318 33 54.198 33H52.632Z" fill="#562CFF"/>
<path d="M4.782 17C4.65 17 4.542 16.958 4.458 16.874C4.374 16.79 4.332 16.682 4.332 16.55V4.85C4.332 4.718 4.374 4.61 4.458 4.526C4.542 4.442 4.65 4.4 4.782 4.4H6.816C6.948 4.4 7.056 4.442 7.14 4.526C7.224 4.61 7.266 4.718 7.266 4.85V16.55C7.266 16.682 7.224 16.79 7.14 16.874C7.056 16.958 6.948 17 6.816 17H4.782ZM10.1558 17C10.0358 17 9.93384 16.958 9.84984 16.874C9.76584 16.79 9.72384 16.682 9.72384 16.55V8.09C9.72384 7.958 9.76584 7.85 9.84984 7.766C9.93384 7.682 10.0358 7.64 10.1558 7.64H11.9198C12.0518 7.64 12.1598 7.682 12.2438 7.766C12.3278 7.85 12.3698 7.958 12.3698 8.09V8.792C12.6818 8.408 13.0838 8.09 13.5758 7.838C14.0678 7.586 14.6678 7.46 15.3758 7.46C16.0838 7.46 16.7018 7.622 17.2298 7.946C17.7698 8.258 18.1898 8.72 18.4898 9.332C18.8018 9.932 18.9578 10.664 18.9578 11.528V16.55C18.9578 16.682 18.9098 16.79 18.8138 16.874C18.7298 16.958 18.6278 17 18.5078 17H16.5998C16.4678 17 16.3598 16.958 16.2758 16.874C16.1918 16.79 16.1498 16.682 16.1498 16.55V11.636C16.1498 11 15.9938 10.508 15.6818 10.16C15.3818 9.8 14.9378 9.62 14.3498 9.62C13.7858 9.62 13.3358 9.8 12.9998 10.16C12.6638 10.508 12.4958 11 12.4958 11.636V16.55C12.4958 16.682 12.4538 16.79 12.3698 16.874C12.2858 16.958 12.1838 17 12.0638 17H10.1558Z" fill="black"/>
</svg>
